<svg xmlns="http://www.w3.org/2000/svg" viewBox="0 0 24 24">
  <path fill="#757575" fill-rule="nonzero" d="M23.664454 23.579825c-.5670558.5602334-1.3366316.5602334-1.9441914 0l-6.9666856-6.882868c-3.6858627 2.6811172-8.708357 2.2809505-11.98918-.9604-3.6858627-3.6415174-3.6858627-9.3639017 0-13.005419 3.6858628-3.6415173 9.477933-3.6415173 13.1637956 0 3.280823 3.2413505 3.6858628 8.4035014.9720957 11.8449354l6.9666856 6.8828678c.20252.60025.20252 1.5606503-.20252 2.1208837zM13.7814813 4.6519382c-2.511247-2.4810338-6.6021497-2.4810338-9.2754128 0-2.5112472 2.4810338-2.5112472 6.5227178 0 9.1638183 2.511247 2.4810337 6.6021497 2.4810337 9.2754128 0 2.5517512-2.4810338 2.5517512-6.6827845 0-9.1638183z"/>
</svg>
